Coordinates
version=1
nRows=9
nColumns=63
inDegrees=yes

Units are S.I. units (second, meters, Newtons, ...)
If the header above contains a line with 'inDegrees', this indicates whether rotational values are in degrees (yes) or radians (no).

endheader
time	pelvis_tilt	pelvis_list	pelvis_rotation	pelvis_tx	pelvis_ty	pelvis_tz	hip_flexion_r	hip_adduction_r	hip_rotation_r	knee_angle_r	knee_angle_r_beta	ankle_angle_r	subtalar_angle_r	mtp_angle_r	hip_flexion_l	hip_adduction_l	hip_rotation_l	knee_angle_l	knee_angle_l_beta	ankle_angle_l	subtalar_angle_l	mtp_angle_l	L5_S1_Flex_Ext	L5_S1_Lat_Bending	L5_S1_axial_rotation	L4_L5_Flex_Ext	L4_L5_Lat_Bending	L4_L5_axial_rotation	L3_L4_Flex_Ext	L3_L4_Lat_Bending	L3_L4_axial_rotation	L2_L3_Flex_Ext	L2_L3_Lat_Bending	L2_L3_axial_rotation	L1_L2_Flex_Ext	L1_L2_Lat_Bending	L1_L2_axial_rotation	L1_T12_Flex_Ext	L1_T12_Lat_Bending	L1_T12_axial_rotation	Abs_r3	Abs_r2	Abs_r1	Abs_t1	Abs_t2	neck_flexion	neck_bending	neck_rotation	arm_flex_r	arm_add_r	arm_rot_r	elbow_flex_r	pro_sup_r	wrist_flex_r	wrist_dev_r	arm_flex_l	arm_add_l	arm_rot_l	elbow_flex_l	pro_sup_l	wrist_flex_l	wrist_dev_l
      0.00000000	     -0.58630753	     -4.59858408	     96.75761214	      0.24882281	      0.95846344	      0.60588393	     -1.17600128	      1.25160411	      4.40018176	     10.46723144	      0.18268765	     33.30889364	    -11.51159949	      0.00000000	     -4.55498584	     -0.64601548	      5.44696191	      1.93753484	      0.03381636	     34.65854399	     -1.80864307	      0.00000000	      0.01811498	     -0.02135173	      1.39957442	      0.03364132	     -0.02839780	      1.48704782	      0.02976109	     -0.05191459	      1.48704782	      0.02070361	     -0.05191459	      1.22462761	      0.01682157	     -0.04354045	      1.13715421	      0.01035090	     -0.03307383	      1.04968081	      0.12939346	     -0.24153503	      7.78401303	      0.00000000	      0.00000000	     21.16265048	     -0.99925008	     -6.39591731	     26.79652869	    -10.68858012	     12.17366580	     86.82437045	     36.26274090	      4.66751160	     20.17003294	     38.85645017	     -1.07830866	     27.43812334	     68.23062214	     76.19067022	      9.90841319	     -9.43126808
      0.01694915	     -0.24944543	     -4.38197624	     98.31796545	      0.24863826	      0.95925732	      0.60501394	     -2.11456929	      1.80527206	      2.35378322	      9.64699445	      0.16837182	     31.86058494	    -12.87868927	      0.00000000	     -5.09565781	     -1.10938875	     13.55689577	      1.41915228	      0.02476888	     31.88321567	    -10.89673351	      0.00000000	     -0.00932158	      0.02232705	      0.97801524	     -0.01731110	      0.02969497	      1.03914119	     -0.01531442	      0.05428599	      1.03914119	     -0.01065363	      0.05428599	      0.85576334	     -0.00865602	      0.04552932	      0.79463738	     -0.00532635	      0.03458460	      0.73351143	     -0.06658308	      0.25256804	      5.43942736	      0.00000000	      0.00000000	     19.70489036	     -0.25901162	     -4.88216963	     22.95135288	    -12.96928483	     14.71684849	     87.97175591	     33.36033282	     16.43591791	     26.19337217	     31.55457347	     -5.26405359	     26.53574628	     76.66107500	     78.91754384	     17.59485368	     -3.72939292
      0.03389831	     -0.16566117	     -4.26049635	     99.70923877	      0.24882468	      0.95961947	      0.60373574	     -2.83082993	      2.13106918	      0.57255696	      8.96819497	      0.15652453	     30.94824039	    -13.70934869	      0.00000000	     -5.34259809	     -1.41296532	     17.11959521	      1.20157234	      0.02097139	     30.58193216	    -14.04698507	      0.00000000	     -0.01957651	      0.02587009	      0.56299153	     -0.03635553	      0.03440722	      0.59817850	     -0.03216224	      0.06290054	      0.59817850	     -0.02237399	      0.06290054	      0.49261759	     -0.01817874	      0.05275429	      0.45743062	     -0.01118602	      0.04007277	      0.42224365	     -0.13983303	      0.29264763	      3.13118999	      0.00000000	      0.00000000	     18.80943319	      0.36479414	     -3.36669744	     19.96247995	    -13.49473127	     16.13651359	     87.91391793	     38.20572146	     22.82110535	     27.54933349	     25.69291793	     -8.17617592	     25.84450051	     81.99126636	     77.15652216	     21.02239914	      3.00933464
      0.05084746	     -0.15783076	     -4.15342330	    100.83973662	      0.24938061	      0.95974997	      0.60220691	     -3.44553328	      2.39854963	     -0.66969405	      8.33949065	      0.14555157	     30.36482347	    -14.25640013	      0.00000000	     -5.51861229	     -1.66750749	     19.30774830	      1.03110347	      0.01799615	     29.97539546	    -15.47626322	      0.00000000	     -0.01703097	      0.01269991	      0.22816747	     -0.03162822	      0.01689088	      0.24242794	     -0.02798019	      0.03087856	      0.24242794	     -0.01946470	      0.03087856	      0.19964653	     -0.01581496	      0.02589765	      0.18538607	     -0.00973150	      0.01967216	      0.17112560	     -0.12165054	      0.14366391	      1.26899901	      0.00000000	      0.00000000	     18.21476781	      0.78864890	     -2.26052234	     17.08829595	    -12.83927713	     15.97649187	     87.61845702	     50.16474448	     24.41959104	     24.38659439	     21.19417716	    -10.04597458	     25.65963915	     84.88177758	     74.62905392	     20.09084048	      8.31442373
      0.06779661	     -0.29755517	     -4.01395607	    101.97074243	      0.24973736	      0.95977090	      0.60055628	     -4.04610387	      2.53136065	     -1.62393676	      7.78031807	      0.13579217	     30.20038951	    -14.64304212	      0.00000000	     -5.68462212	     -1.77344807	     20.93989925	      0.89913576	      0.01569288	     29.71822501	    -16.19726310	      0.00000000	     -0.01117260	     -0.02207171	     -0.04013415	     -0.02074864	     -0.02935538	     -0.04264254	     -0.01835547	     -0.05366517	     -0.04264254	     -0.01276917	     -0.05366517	     -0.03511738	     -0.01037488	     -0.04500864	     -0.03260900	     -0.00638403	     -0.03418909	     -0.03010062	     -0.07980480	     -0.24967965	     -0.22321413	      0.00000000	      0.00000000	     17.79661303	      0.97025456	     -1.74475218	     14.21739613	    -11.70066810	     15.07129249	     87.27450806	     67.28084156	     21.30976468	     16.73340962	     18.04963147	    -11.19804287	     26.31761613	     85.86190222	     72.89655663	     15.66167583	     10.53268502
      0.08474576	     -0.45013948	     -3.84353931	    102.94997854	      0.25002684	      0.95977510	      0.59889010	     -4.61872104	      2.64724311	     -2.14536340	      7.25267774	      0.12658311	     30.11938298	    -15.00773152	      0.00000000	     -5.85564465	     -1.86724135	     22.17553352	      0.80418291	      0.01403564	     29.72308249	    -16.43837046	      0.00000000	     -0.00363473	     -0.05804160	     -0.24645355	     -0.00675006	     -0.07719532	     -0.26185690	     -0.00597150	     -0.14112234	     -0.26185690	     -0.00415413	     -0.14112234	     -0.21564686	     -0.00337521	     -0.11835842	     -0.20024351	     -0.00207688	     -0.08990643	     -0.18484016	     -0.02596251	     -0.65657814	     -1.37070071	      0.00000000	      0.00000000	     17.55780436	      1.00892816	     -1.48230830	     11.89996808	    -10.39152647	     14.63336259	     86.22843190	     81.81512891	     14.03706189	      9.07163392	     15.99005299	    -11.67843525	     27.12560852	     85.41790885	     72.79866378	     10.63476843	     10.54487362
      0.10169492	     -0.56701255	     -3.67116114	    103.99084744	      0.24993862	      0.95960270	      0.59725905	     -5.17838572	      2.80220877	     -2.62516734	      6.70433096	      0.11701265	     30.13173793	    -15.33675661	      0.00000000	     -5.99219671	     -1.99035616	     23.15760903	      0.76196184	      0.01329874	     29.94469164	    -16.29575592	      0.00000000	      0.00606659	     -0.09073874	     -0.43305301	      0.01126626	     -0.12068253	     -0.46011882	      0.00996679	     -0.22062218	     -0.46011882	      0.00693350	     -0.22062218	     -0.37892138	      0.00563343	     -0.18503445	     -0.35185557	      0.00346645	     -0.14055432	     -0.32478976	      0.04333302	     -1.02645483	     -2.40851091	      0.00000000	      0.00000000	     17.48652344	      0.86079703	     -1.73178720	     10.47090096	     -9.52144215	     15.20965395	     84.32034900	     86.52653601	      8.23470401	      5.22272695	     14.80834904	    -11.70354712	     27.93137892	     83.96057565	     73.04336108	      7.19517411	      9.79971604
      0.11864407	     -0.62975157	     -3.40231984	    104.40650828	      0.25019035	      0.95948787	      0.59572891	     -5.61683850	      2.92911664	     -2.72716010	      6.51182627	      0.11365281	     30.47890633	    -15.28058104	      0.00000000	     -6.29806626	     -2.11329716	     23.73345493	      0.70158728	      0.01224501	     30.07386879	    -16.55331363	      0.00000000	      0.00581883	     -0.11138120	     -0.51895609	      0.01080616	     -0.14813699	     -0.55139085	      0.00955976	     -0.27081224	     -0.55139085	      0.00665034	     -0.27081224	     -0.45408658	      0.00540337	     -0.22712854	     -0.42165182	      0.00332488	     -0.17252947	     -0.38921707	      0.04156334	     -1.25996638	     -2.88627809	      0.00000000	      0.00000000	     17.32738043	      0.77399739	     -1.86684604	      9.85764401	     -9.50865562	     17.50355923	     81.86469356	     86.71036768	      2.26556455	      1.10708113	     14.17085246	    -11.79740281	     29.17591366	     82.14943543	     72.23511821	      4.43386909	      8.52611688
      0.13559322	     -0.64572208	     -3.31948900	    104.53270794	      0.25037576	      0.95896648	      0.59414151	     -5.79999135	      3.00618638	     -2.65304534	      6.43209355	      0.11226121	     30.82357255	    -15.30873951	      0.00000000	     -6.44066747	     -2.18597288	     23.88306961	      0.65702511	      0.01146725	     30.37293713	    -16.53553424	      0.00000000	      0.02316551	     -0.12434099	     -0.52904562	      0.04302066	     -0.16537352	     -0.56211097	      0.03805861	     -0.30232269	     -0.56211097	      0.02647586	     -0.30232269	     -0.46291492	      0.02151149	     -0.25355615	     -0.42984957	      0.01323677	     -0.19260420	     -0.39678422	      0.16546891	     -1.40657018	     -2.94239304	      0.00000000	      0.00000000	     17.68366674	      0.71296846	     -1.94426360	      9.01587360	     -9.30139576	     18.29631636	     80.27548026	     86.73364355	      2.20747857	      1.27675710	     13.54632906	    -11.61420648	     29.77493513	     80.54380450	     72.27244686	      4.29956328	      8.71844512
